<svg xmlns="http://www.w3.org/2000/svg" viewBox="0 0 512 512">
  <defs>
    <linearGradient id="grad1" x1="0%" y1="0%" x2="100%" y2="100%">
      <stop offset="0%" style="stop-color:#8B5CF6;stop-opacity:1" />
      <stop offset="100%" style="stop-color:#C026D3;stop-opacity:1" />
    </linearGradient>
  </defs>
  <rect width="512" height="512" rx="100" fill="url(#grad1)"/>
  <path d="M256 120c-75 0-136 61-136 136s61 136 136 136 136-61 136-136-61-136-136-136zm0 240c-57 0-104-47-104-104s47-104 104-104 104 47 104 104-47 104-104 104z" fill="white" opacity="0.9"/>
  <circle cx="256" cy="256" r="60" fill="white"/>
  <path d="M256 180c42 0 76 34 76 76s-34 76-76 76-76-34-76-76 34-76 76-76z" fill="#8B5CF6"/>
</svg>
